<svg xmlns="http://www.w3.org/2000/svg" width="1448" height="1080" fill="none"><style>.B{stroke-miterlimit:10}.C{stroke-width:2}.D{fill:#0063a3}.E{stroke:#b7b9c3}.F{fill:#b7b9c3}</style><mask id="A" maskUnits="userSpaceOnUse" x="0" y="0" width="1448" height="1207" mask-type="alpha"><path fill="#c4c4c4" d="M0 0h1448v1206.67H0z"/></mask><g mask="url(#A)"><path opacity=".1" d="M-26.848 580.507v223.636l194.575-112.22A370.544 370.544 0 0 1-26.848 580.507zM166.218-32.479-26.848-143.794V78.534C24.636 22.625 92.008-16.089 166.218-32.479zm627.97 362.703-194.475-112.32a371.45 371.45 0 0 1-.603 224.842l195.078-112.522zM101.159 26.044c27.854-6.134 85.774 0 116.443 8.447C246.361 14.078 280.65 2.614 315.945 1.81c-72.5-12.368-146.911-3.922-214.786 24.234zm370.547 406.848c-4.827-42.636-14.983-84.467-30.468-124.488-66.367 30.167-149.024 10.759-204.128-37.005a912.79 912.79 0 0 0-108.399 137.56c93.517 76.221 247.065 96.232 342.995 23.933zM77.729 416.401C-4.525 331.934-33.284 209.055-6.838 114.533c-112.119 131.929-103.874 327.911 18.905 449.986A600.804 600.804 0 0 1 77.73 416.401zm348.626-143.694a450.026 450.026 0 0 0-66.366-102.165c-33.485 22.022-65.16 46.658-94.824 73.707 49.875 41.329 115.136 49.574 161.19 28.458zm-61.942-153.75a349.78 349.78 0 0 1 72.199-40.121c-52.691-53.294-137.459-51.887-174.363-28.457 37.909 16.692 72.4 39.921 102.164 68.579zM107.795 443.953c-40.926 70.791-55.908 123.18-61.439 150.431 122.074 91.807 291.008 88.388 409.362-8.246a286.13 286.13 0 0 0 19.005-107.393c-113.427 67.473-269.59 41.731-366.928-34.792zm350.738-194.776c36.301-37.91 28.96-102.768 1.408-140.074a279.76 279.76 0 0 0-67.573 39.619c26.044 30.669 48.266 64.355 66.165 100.455zm62.646-81.551c5.933 44.948-11.362 89.897-45.853 119.36 14.48 35.898 25.038 73.305 31.575 111.516 49.674-64.758 48.166-157.068 14.278-230.876zm-282.963 47.865c29.161-26.949 60.333-51.585 93.316-73.808-29.865-27.251-64.658-48.468-102.567-62.445-30.871 41.328-21.418 94.824 9.251 136.253zm274.617 234.998c1.207 28.155-.201 56.311-4.123 84.165 51.284-66.065 75.92-148.923 69.283-232.283a254.536 254.536 0 0 1-65.16 148.118zM190.251 67.372a269.173 269.173 0 0 0-131.728.804C-6.838 160.889 23.53 296.538 99.55 381.105c32.479-49.372 69.383-95.628 110.41-138.263-38.613-48.066-53.998-122.276-19.709-175.47z" class="D"/><path d="M966.741 981.623c17.772 0 32.178-14.406 32.178-32.177s-14.406-32.178-32.178-32.178-32.178 14.406-32.178 32.178 14.407 32.177 32.178 32.177zm250.479-647.577h-64.35v64.355h64.35v-64.355z" fill="#f1f1f6"/><path d="M395.787 714.749v32.178m-16.089-16.089h32.178" stroke="#fbad26" class="B C"/><path d="M839.84 176.877v12.067h-12.067v-12.067h12.067zm2.011-2.011h-16.089v16.089h16.089v-16.089z" fill="#fbad26"/><path d="M264.461 900.274c7.743 0 14.078 6.335 14.078 14.078s-6.335 14.077-14.078 14.077-14.078-6.335-14.078-14.077 6.335-14.078 14.078-14.078zm0-2.011c-8.849 0-16.089 7.24-16.089 16.089s7.24 16.089 16.089 16.089 16.089-7.24 16.089-16.089-7.139-16.089-16.089-16.089z" fill="#e0e1e9"/><path d="M176.676 31.273c3.318 0 6.033 2.715 6.033 6.033s-2.715 6.033-6.033 6.033-6.033-2.715-6.033-6.033 2.715-6.033 6.033-6.033zm0-2.011a8.07 8.07 0 0 0-8.044 8.044 8.07 8.07 0 0 0 8.044 8.044 8.07 8.07 0 0 0 8.045-8.044 8.07 8.07 0 0 0-8.045-8.044z" class="F"/><path d="M1360.11 187.737v64.356m-32.17-32.178h64.35" stroke="#e0e1e9" class="B C"/><path d="M219.312 691.621a3.017 3.017 0 1 1 0 6.033 3.017 3.017 0 1 1 0-6.033zm0-1.005c-2.213 0-4.023 1.81-4.023 4.022s1.81 4.022 4.023 4.022 4.022-1.81 4.022-4.022-1.81-4.022-4.022-4.022zm263.455-548.028a3.016 3.016 0 1 1 0 6.033 2.96 2.96 0 0 1-3.016-3.016c0-1.71 1.407-3.017 3.016-3.017zm0-1.006c-2.212 0-4.022 1.81-4.022 4.023s1.81 4.022 4.022 4.022 4.022-1.81 4.022-4.022-1.81-4.023-4.022-4.023z" fill="#e0e1e9"/><path d="M526.408 578.798c3.319 0 6.034 2.715 6.034 6.033s-2.715 6.033-6.034 6.033-6.033-2.715-6.033-6.033 2.715-6.033 6.033-6.033zm0-2.011a8.07 8.07 0 0 0-8.044 8.044 8.07 8.07 0 0 0 8.044 8.045 8.07 8.07 0 0 0 8.045-8.045 8.07 8.07 0 0 0-8.045-8.044z" class="F"/><path d="M225.043 359.486v12.067h-12.066v-12.067h12.066zm2.011-2.011h-16.088v16.089h16.088v-16.089z" class="D"/><path d="M1331.36 424.546v28.155h-28.16v-28.155h28.16zm2.01-2.012h-32.18v32.178h32.18v-32.178z" class="F"/><path d="M1235.22 322.683v12.067h-12.06v-12.067h12.06zm2.02-2.011h-16.09v16.089h16.09v-16.089z" fill="#fbad26"/><path d="M920.888 395.284c3.318 0 6.033 2.715 6.033 6.033s-2.715 6.034-6.033 6.034-6.034-2.715-6.034-6.034 2.715-6.033 6.034-6.033zm0-2.011a8.07 8.07 0 0 0-8.045 8.044 8.07 8.07 0 0 0 8.045 8.045 8.07 8.07 0 0 0 8.044-8.045 8.07 8.07 0 0 0-8.044-8.044z" class="D"/><path d="M658.136 471.505v8.044m-4.022-4.022h8.044" class="B E"/><path d="M1009.28 956.987c16.59 0 30.16 13.575 30.16 30.167s-13.57 30.166-30.16 30.166c-16.596 0-30.171-13.57-30.171-30.166s13.575-30.167 30.171-30.167zm0-2.011c-17.802 0-32.182 14.38-32.182 32.178s14.38 32.176 32.182 32.176c17.79 0 32.17-14.38 32.17-32.176s-14.38-32.178-32.17-32.178z" class="D"/><path d="M701.476 94.02v32.178m-16.089-16.09h32.178" class="B C E"/><path d="M760.602 131.225h-32.178v32.178h32.178v-32.178zm81.45 518.867h-16.089v16.089h16.089v-16.089zm-702.28 109.505h-16.089v16.089h16.089v-16.089zM1054.02 87.785a16.09 16.09 0 0 0 16.09-16.089 16.09 16.09 0 0 0-16.09-16.089c-8.88 0-16.09 7.203-16.09 16.089s7.21 16.089 16.09 16.089zm43.24 651.701a8.045 8.045 0 1 0 0-16.089c-4.44 0-8.04 3.601-8.04 8.044s3.6 8.045 8.04 8.045z" fill="#f1f1f6"/></g></svg>