{
  "accessors": [
    {
      "bufferView": 2,
      "componentType": 5126,
      "count": 6478,
      "max": [
        1.8214393854141235,
        0.9591297507286072,
        1.6508640050888062
      ],
      "min": [
        -1.821439266204834,
        -3.9415738582611084,
        -2.1986160278320313
      ],
      "type": "VEC3"
    },
    {
      "bufferView": 2,
      "byteOffset": 77736,
      "componentType": 5126,
      "count": 6478,
      "max": [
        0.9999887943267822,
        0.9999183416366577,
        0.9999538660049438
      ],
      "min": [
        -0.9999887943267822,
        -0.9999903440475464,
        -0.9999481439590454
      ],
      "type": "VEC3"
    },
    {
      "bufferView": 1,
      "componentType": 5126,
      "count": 6478,
      "max": [
        0.999733030796051,
        0.9334588646888733
      ],
      "min": [
        0.0002668616361916065,
        0.0002668616361916065
      ],
      "type": "VEC2"
    },
    {
      "bufferView": 0,
      "componentType": 5125,
      "count": 34992,
      "type": "SCALAR"
    },
    {
      "bufferView": 2,
      "byteOffset": 155472,
      "componentType": 5126,
      "count": 140,
      "max": [
        0.578077495098114,
        -0.38163813948631287,
        1.53745436668396
      ],
      "min": [
        -0.578077495098114,
        -0.5585702061653137,
        1.2649744749069214
      ],
      "type": "VEC3"
    },
    {
      "bufferView": 2,
      "byteOffset": 157152,
      "componentType": 5126,
      "count": 140,
      "max": [
        0.7374030947685242,
        0.5896860361099243,
        0.9999538660049438
      ],
      "min": [
        -0.7374030947685242,
        -0.9645524621009827,
        0.08746740221977234
      ],
      "type": "VEC3"
    },
    {
      "bufferView": 1,
      "byteOffset": 51824,
      "componentType": 5126,
      "count": 140,
      "max": [
        0.6278841495513916,
        0.6573094129562378
      ],
      "min": [
        0.41674351692199707,
        0.5876205563545227
      ],
      "type": "VEC2"
    },
    {
      "bufferView": 0,
      "byteOffset": 139968,
      "componentType": 5125,
      "count": 576,
      "type": "SCALAR"
    },
    {
      "bufferView": 2,
      "byteOffset": 158832,
      "componentType": 5126,
      "count": 472,
      "max": [
        0.5589170455932617,
        0.5566070079803467,
        1.6633937358856201
      ],
      "min": [
        -0.3779526352882385,
        -0.31889358162879944,
        0.964894711971283
      ],
      "type": "VEC3"
    },
    {
      "bufferView": 2,
      "byteOffset": 164496,
      "componentType": 5126,
      "count": 472,
      "max": [
        0.9988430142402649,
        0.9914867281913757,
        0.9839127659797668
      ],
      "min": [
        -0.9988430142402649,
        -0.9977668523788452,
        -0.9974278211593628
      ],
      "type": "VEC3"
    },
    {
      "bufferView": 1,
      "byteOffset": 52944,
      "componentType": 5126,
      "count": 472,
      "max": [
        0.6250000596046448,
        0.9452053904533386
      ],
      "min": [
        0.4626390039920807,
        0.7500000596046448
      ],
      "type": "VEC2"
    },
    {
      "bufferView": 0,
      "byteOffset": 142272,
      "componentType": 5125,
      "count": 2160,
      "type": "SCALAR"
    },
    {
      "bufferView": 2,
      "byteOffset": 170160,
      "componentType": 5126,
      "count": 297,
      "max": [
        0.6198350787162781,
        0.7487359642982483,
        1.116561770439148
      ],
      "min": [
        -0.6198350787162781,
        -0.091742604970932,
        0.6177961826324463
      ],
      "type": "VEC3"
    },
    {
      "bufferView": 2,
      "byteOffset": 173724,
      "componentType": 5126,
      "count": 297,
      "max": [
        0.9975507259368896,
        0.9966992735862732,
        0.9970962405204773
      ],
      "min": [
        -0.9975507259368896,
        -0.9793857932090759,
        -0.6961093544960022
      ],
      "type": "VEC3"
    },
    {
      "bufferView": 1,
      "byteOffset": 56720,
      "componentType": 5126,
      "count": 297,
      "max": [
        0.6223958730697632,
        0.8723958730697632
      ],
      "min": [
        0.5026042461395264,
        0.7500000596046448
      ],
      "type": "VEC2"
    },
    {
      "bufferView": 0,
      "byteOffset": 150912,
      "componentType": 5125,
      "count": 1422,
      "type": "SCALAR"
    },
    {
      "bufferView": 2,
      "byteOffset": 177288,
      "componentType": 5126,
      "count": 294,
      "max": [
        0.816064715385437,
        0.9207869172096252,
        0.8335559368133545
      ],
      "min": [
        -0.816064715385437,
        0.48373842239379883,
        0.6800271272659302
      ],
      "type": "VEC3"
    },
    {
      "bufferView": 2,
      "byteOffset": 180816,
      "componentType": 5126,
      "count": 294,
      "max": [
        0.9720890522003174,
        0.8495121002197266,
        0.9628849029541016
      ],
      "min": [
        -0.9720890522003174,
        -0.9619425535202026,
        -0.9948684573173523
      ],
      "type": "VEC3"
    },
    {
      "bufferView": 1,
      "byteOffset": 59096,
      "componentType": 5126,
      "count": 294,
      "max": [
        0.7309867143630981,
        0.7205935716629028
      ],
      "min": [
        0.5625000596046448,
        0.7139453291893005
      ],
      "type": "VEC2"
    },
    {
      "bufferView": 0,
      "byteOffset": 156600,
      "componentType": 5125,
      "count": 1104,
      "type": "SCALAR"
    },
    {
      "bufferView": 2,
      "byteOffset": 184344,
      "componentType": 5126,
      "count": 191,
      "max": [
        0.6151659488677979,
        -1.0520745515823364,
        0.56097412109375
      ],
      "min": [
        -0.6151658892631531,
        -1.296189546585083,
        -0.5592865943908691
      ],
      "type": "VEC3"
    },
    {
      "bufferView": 2,
      "byteOffset": 186636,
      "componentType": 5126,
      "count": 191,
      "max": [
        0.9982711672782898,
        0.9507920145988464,
        0.999862790107727
      ],
      "min": [
        -0.9982711672782898,
        -0.990634560585022,
        -0.9996922016143799
      ],
      "type": "VEC3"
    },
    {
      "bufferView": 1,
      "byteOffset": 61448,
      "componentType": 5126,
      "count": 191,
      "max": [
        0.3750000596046448,
        0.7500001192092896
      ],
      "min": [
        0.25,
        0.375
      ],
      "type": "VEC2"
    },
    {
      "bufferView": 0,
      "byteOffset": 161016,
      "componentType": 5125,
      "count": 672,
      "type": "SCALAR"
    },
    {
      "bufferView": 2,
      "byteOffset": 188928,
      "componentType": 5126,
      "count": 111,
      "max": [
        0.21932625770568848,
        -1.2635526657104492,
        0.7645366191864014
      ],
      "min": [
        -0.21932631731033325,
        -1.6966700553894043,
        0.5140097141265869
      ],
      "type": "VEC3"
    },
    {
      "bufferView": 2,
      "byteOffset": 190260,
      "componentType": 5126,
      "count": 111,
      "max": [
        1.0,
        0.9570924043655396,
        0.9957970976829529
      ],
      "min": [
        -1.0,
        -0.9139725565910339,
        -0.4057759940624237
      ],
      "type": "VEC3"
    },
    {
      "bufferView": 1,
      "byteOffset": 62976,
      "componentType": 5126,
      "count": 111,
      "max": [
        1.0,
        1.0
      ],
      "min": [
        7.450580596923828e-08,
        0.01000000536441803
      ],
      "type": "VEC2"
    },
    {
      "bufferView": 0,
      "byteOffset": 163704,
      "componentType": 5125,
      "count": 534,
      "type": "SCALAR"
    },
    {
      "bufferView": 2,
      "byteOffset": 191592,
      "componentType": 5126,
      "count": 104,
      "max": [
        1.1447076797485352,
        -0.06512391567230225,
        0.9853646755218506
      ],
      "min": [
        -0.8570868968963623,
        -0.10732150077819824,
        -0.9972107410430908
      ],
      "type": "VEC3"
    },
    {
      "bufferView": 2,
      "byteOffset": 192840,
      "componentType": 5126,
      "count": 104,
      "max": [
        0.9966820478439331,
        1.0,
        1.0
      ],
      "min": [
        -0.9951809644699097,
        -1.0,
        -1.0
      ],
      "type": "VEC3"
    },
    {
      "bufferView": 1,
      "byteOffset": 63864,
      "componentType": 5126,
      "count": 104,
      "max": [
        0.375,
        0.75
      ],
      "min": [
        0.125,
        0.5
      ],
      "type": "VEC2"
    },
    {
      "bufferView": 0,
      "byteOffset": 165840,
      "componentType": 5125,
      "count": 228,
      "type": "SCALAR"
    },
    {
      "bufferView": 2,
      "byteOffset": 194088,
      "componentType": 5126,
      "count": 192,
      "max": [
        1.1171005964279175,
        0.16559624671936035,
        0.9682619571685791
      ],
      "min": [
        -0.8297983407974243,
        -0.08592700958251953,
        -0.9623360633850098
      ],
      "type": "VEC3"
    },
    {
      "bufferView": 2,
      "byteOffset": 196392,
      "componentType": 5126,
      "count": 192,
      "max": [
        0.9975204467773438,
        0.9999995231628418,
        1.0
      ],
      "min": [
        -0.9925021529197693,
        -1.0,
        -1.0
      ],
      "type": "VEC3"
    },
    {
      "bufferView": 1,
      "byteOffset": 64696,
      "componentType": 5126,
      "count": 192,
      "max": [
        0.25,
        0.75
      ],
      "min": [
        0.125,
        0.5
      ],
      "type": "VEC2"
    },
    {
      "bufferView": 0,
      "byteOffset": 166752,
      "componentType": 5125,
      "count": 432,
      "type": "SCALAR"
    }
  ],
  "asset": {
    "extras": {
      "author": "Nevermoredmb (https://sketchfab.com/nevermoredmb)",
      "license": "CC-BY-NC-4.0 (http://creativecommons.org/licenses/by-nc/4.0/)",
      "source": "https://sketchfab.com/3d-models/14-search-792b8ac643ab4b229a388593b361f17d",
      "title": "#14 Search"
    },
    "generator": "Sketchfab-12.66.0",
    "version": "2.0"
  },
  "bufferViews": [
    {
      "buffer": 0,
      "byteLength": 168480,
      "name": "floatBufferViews",
      "target": 34963
    },
    {
      "buffer": 0,
      "byteLength": 66232,
      "byteOffset": 168480,
      "byteStride": 8,
      "name": "floatBufferViews",
      "target": 34962
    },
    {
      "buffer": 0,
      "byteLength": 198696,
      "byteOffset": 234712,
      "byteStride": 12,
      "name": "floatBufferViews",
      "target": 34962
    }
  ],
  "buffers": [
    {
      "byteLength": 433408,
      "uri": "scene.bin"
    }
  ],
  "materials": [
    {
      "doubleSided": true,
      "name": "dog_skin",
      "pbrMetallicRoughness": {
        "baseColorFactor": [
          0.904661,
          0.287441,
          0.0,
          1.0
        ],
        "metallicFactor": 0.0,
        "roughnessFactor": 0.525
      }
    },
    {
      "doubleSided": true,
      "name": "Material",
      "pbrMetallicRoughness": {
        "baseColorFactor": [
          0.0188488,
          0.0188488,
          0.0188488,
          1.0
        ],
        "metallicFactor": 0.0
      }
    },
    {
      "doubleSided": true,
      "name": "eye_black",
      "pbrMetallicRoughness": {
        "baseColorFactor": [
          0.0,
          0.0,
          0.0,
          1.0
        ],
        "metallicFactor": 0.0,
        "roughnessFactor": 0.0
      }
    },
    {
      "doubleSided": true,
      "name": "eye_ball",
      "pbrMetallicRoughness": {
        "metallicFactor": 0.0,
        "roughnessFactor": 0.5
      }
    },
    {
      "doubleSided": true,
      "name": "brow",
      "pbrMetallicRoughness": {
        "baseColorFactor": [
          0.473531,
          0.158961,
          0.000303527,
          1.0
        ],
        "metallicFactor": 0.0,
        "roughnessFactor": 0.5
      }
    },
    {
      "doubleSided": true,
      "name": "oval",
      "pbrMetallicRoughness": {
        "baseColorFactor": [
          0.938686,
          0.00182116,
          0.000607054,
          1.0
        ],
        "metallicFactor": 0.0,
        "roughnessFactor": 0.5
      }
    },
    {
      "doubleSided": true,
      "name": "silver",
      "pbrMetallicRoughness": {
        "baseColorFactor": [
          0.938686,
          0.913099,
          0.571125,
          1.0
        ],
        "metallicFactor": 0.525,
        "roughnessFactor": 0.25
      }
    },
    {
      "doubleSided": true,
      "name": "book",
      "pbrMetallicRoughness": {
        "baseColorFactor": [
          0.571125,
          0.0295568,
          0.0231534,
          1.0
        ],
        "metallicFactor": 0.0,
        "roughnessFactor": 0.5
      }
    },
    {
      "doubleSided": true,
      "name": "paper",
      "pbrMetallicRoughness": {
        "baseColorFactor": [
          0.3623475609756098,
          0.3623475609756098,
          0.3623475609756098,
          1.0
        ],
        "metallicFactor": 0.0
      }
    }
  ],
  "meshes": [
    {
      "name": "Object_0",
      "primitives": [
        {
          "attributes": {
            "NORMAL": 1,
            "POSITION": 0,
            "TEXCOORD_0": 2
          },
          "indices": 3,
          "material": 0,
          "mode": 4
        }
      ]
    },
    {
      "name": "Object_1",
      "primitives": [
        {
          "attributes": {
            "NORMAL": 5,
            "POSITION": 4,
            "TEXCOORD_0": 6
          },
          "indices": 7,
          "material": 1,
          "mode": 4
        }
      ]
    },
    {
      "name": "Object_2",
      "primitives": [
        {
          "attributes": {
            "NORMAL": 9,
            "POSITION": 8,
            "TEXCOORD_0": 10
          },
          "indices": 11,
          "material": 2,
          "mode": 4
        }
      ]
    },
    {
      "name": "Object_3",
      "primitives": [
        {
          "attributes": {
            "NORMAL": 13,
            "POSITION": 12,
            "TEXCOORD_0": 14
          },
          "indices": 15,
          "material": 3,
          "mode": 4
        }
      ]
    },
    {
      "name": "Object_4",
      "primitives": [
        {
          "attributes": {
            "NORMAL": 17,
            "POSITION": 16,
            "TEXCOORD_0": 18
          },
          "indices": 19,
          "material": 4,
          "mode": 4
        }
      ]
    },
    {
      "name": "Object_5",
      "primitives": [
        {
          "attributes": {
            "NORMAL": 21,
            "POSITION": 20,
            "TEXCOORD_0": 22
          },
          "indices": 23,
          "material": 5,
          "mode": 4
        }
      ]
    },
    {
      "name": "Object_6",
      "primitives": [
        {
          "attributes": {
            "NORMAL": 25,
            "POSITION": 24,
            "TEXCOORD_0": 26
          },
          "indices": 27,
          "material": 6,
          "mode": 4
        }
      ]
    },
    {
      "name": "Object_7",
      "primitives": [
        {
          "attributes": {
            "NORMAL": 29,
            "POSITION": 28,
            "TEXCOORD_0": 30
          },
          "indices": 31,
          "material": 7,
          "mode": 4
        }
      ]
    },
    {
      "name": "Object_8",
      "primitives": [
        {
          "attributes": {
            "NORMAL": 33,
            "POSITION": 32,
            "TEXCOORD_0": 34
          },
          "indices": 35,
          "material": 8,
          "mode": 4
        }
      ]
    }
  ],
  "nodes": [
    {
      "children": [
        1
      ],
      "matrix": [
        1.0,
        0.0,
        0.0,
        0.0,
        0.0,
        2.220446049250313e-16,
        -1.0,
        0.0,
        0.0,
        1.0,
        2.220446049250313e-16,
        0.0,
        0.0,
        0.0,
        0.0,
        1.0
      ],
      "name": "Sketchfab_model"
    },
    {
      "children": [
        2
      ],
      "name": "root"
    },
    {
      "children": [
        3,
        11
      ],
      "matrix": [
        1.0,
        0.0,
        0.0,
        0.0,
        0.0,
        2.220446049250313e-16,
        1.0,
        0.0,
        0.0,
        -1.0,
        2.220446049250313e-16,
        0.0,
        0.0,
        0.0,
        0.0,
        1.0
      ],
      "name": "GLTF_SceneRootNode"
    },
    {
      "children": [
        4,
        5,
        6,
        7,
        8,
        9,
        10
      ],
      "matrix": [
        1.0,
        0.0,
        0.0,
        0.0,
        0.0,
        1.0,
        0.0,
        0.0,
        0.0,
        0.0,
        1.0,
        0.0,
        0.0,
        3.926947593688965,
        0.0,
        1.0
      ],
      "name": "dog_0"
    },
    {
      "mesh": 0,
      "name": "Object_4"
    },
    {
      "mesh": 1,
      "name": "Object_5"
    },
    {
      "mesh": 2,
      "name": "Object_6"
    },
    {
      "mesh": 3,
      "name": "Object_7"
    },
    {
      "mesh": 4,
      "name": "Object_8"
    },
    {
      "mesh": 5,
      "name": "Object_9"
    },
    {
      "mesh": 6,
      "name": "Object_10"
    },
    {
      "children": [
        12,
        13
      ],
      "matrix": [
        1.3279931545257568,
        0.0,
        0.0,
        0.0,
        0.0,
        1.3279931545257568,
        0.0,
        0.0,
        0.0,
        0.0,
        0.912076473236084,
        0.0,
        -0.14389370381832123,
        0.08945775032043457,
        2.6394972801208496,
        1.0
      ],
      "name": "Cube.001_2"
    },
    {
      "mesh": 7,
      "name": "Object_12"
    },
    {
      "mesh": 8,
      "name": "Object_13"
    }
  ],
  "scene": 0,
  "scenes": [
    {
      "name": "Sketchfab_Scene",
      "nodes": [
        0
      ]
    }
  ]
}
