{
  "accessors": [
    {
      "bufferView": 2,
      "componentType": 5126,
      "count": 20772,
      "max": [
        0.621042013168335,
        0.5290594100952148,
        2.975147008895874
      ],
      "min": [
        -0.621042013168335,
        -0.605281412601471,
        -0.0005420580273494124
      ],
      "type": "VEC3"
    },
    {
      "bufferView": 2,
      "byteOffset": 249264,
      "componentType": 5126,
      "count": 20772,
      "max": [
        1.0,
        1.0,
        1.0
      ],
      "min": [
        -1.0,
        -1.0,
        -1.0
      ],
      "type": "VEC3"
    },
    {
      "bufferView": 1,
      "componentType": 5126,
      "count": 20772,
      "max": [
        0.999755859375,
        0.9933316707611084
      ],
      "min": [
        0.000244140625,
        0.000244140625
      ],
      "type": "VEC2"
    },
    {
      "bufferView": 1,
      "byteOffset": 166176,
      "componentType": 5126,
      "count": 20772,
      "max": [
        0.999755859375,
        0.9933316707611084
      ],
      "min": [
        0.000244140625,
        0.000244140625
      ],
      "type": "VEC2"
    },
    {
      "bufferView": 1,
      "byteOffset": 332352,
      "componentType": 5126,
      "count": 20772,
      "max": [
        0.999755859375,
        0.9933316707611084
      ],
      "min": [
        0.000244140625,
        0.000244140625
      ],
      "type": "VEC2"
    },
    {
      "bufferView": 0,
      "componentType": 5125,
      "count": 103062,
      "type": "SCALAR"
    },
    {
      "bufferView": 2,
      "byteOffset": 498528,
      "componentType": 5126,
      "count": 31274,
      "max": [
        2.1700639724731445,
        2.1700639724731445,
        2.861370086669922
      ],
      "min": [
        -2.1700639724731445,
        -2.1700639724731445,
        -0.29006436467170715
      ],
      "type": "VEC3"
    },
    {
      "bufferView": 2,
      "byteOffset": 873816,
      "componentType": 5126,
      "count": 31274,
      "max": [
        0.9999998807907104,
        0.9999998807907104,
        1.0
      ],
      "min": [
        -0.9999998807907104,
        -0.9999999403953552,
        -0.9993007779121399
      ],
      "type": "VEC3"
    },
    {
      "bufferView": 3,
      "componentType": 5126,
      "count": 31274,
      "max": [
        0.9997294545173645,
        0.9999989867210388,
        0.9999542236328125,
        1.0
      ],
      "min": [
        -0.9998525381088257,
        -0.9975746273994446,
        -0.9999109506607056,
        -1.0
      ],
      "type": "VEC4"
    },
    {
      "bufferView": 1,
      "byteOffset": 498528,
      "componentType": 5126,
      "count": 31274,
      "max": [
        0.999755859375,
        0.8797290921211243
      ],
      "min": [
        0.000244140625,
        0.000244140625
      ],
      "type": "VEC2"
    },
    {
      "bufferView": 1,
      "byteOffset": 748720,
      "componentType": 5126,
      "count": 31274,
      "max": [
        0.999755859375,
        0.8797290921211243
      ],
      "min": [
        0.000244140625,
        0.000244140625
      ],
      "type": "VEC2"
    },
    {
      "bufferView": 0,
      "byteOffset": 412248,
      "componentType": 5125,
      "count": 183966,
      "type": "SCALAR"
    }
  ],
  "asset": {
    "extras": {
      "author": "Nom (https://sketchfab.com/nomthewise)",
      "license": "CC-BY-4.0 (http://creativecommons.org/licenses/by/4.0/)",
      "source": "https://sketchfab.com/3d-models/spaceskull-skullchaser-f87186eb9936475c944756e392231354",
      "title": "Spaceskull - Skullchaser"
    },
    "generator": "Sketchfab-13.74.0",
    "version": "2.0"
  },
  "bufferViews": [
    {
      "buffer": 0,
      "byteLength": 1148112,
      "name": "floatBufferViews",
      "target": 34963
    },
    {
      "buffer": 0,
      "byteLength": 998912,
      "byteOffset": 1148112,
      "byteStride": 8,
      "name": "floatBufferViews",
      "target": 34962
    },
    {
      "buffer": 0,
      "byteLength": 1249104,
      "byteOffset": 2147024,
      "byteStride": 12,
      "name": "floatBufferViews",
      "target": 34962
    },
    {
      "buffer": 0,
      "byteLength": 500384,
      "byteOffset": 3396128,
      "byteStride": 16,
      "name": "floatBufferViews",
      "target": 34962
    }
  ],
  "buffers": [
    {
      "byteLength": 3896512,
      "uri": "scene.bin"
    }
  ],
  "images": [
    {
      "uri": "textures/Character_Mat_baseColor.png"
    },
    {
      "uri": "textures/Character_Mat_metallicRoughness.png"
    },
    {
      "uri": "textures/Character_Mat_emissive.png"
    },
    {
      "uri": "textures/Eviro_Mat_baseColor.png"
    },
    {
      "uri": "textures/Eviro_Mat_metallicRoughness.png"
    },
    {
      "uri": "textures/Eviro_Mat_normal.png"
    }
  ],
  "materials": [
    {
      "doubleSided": true,
      "emissiveFactor": [
        1.0,
        1.0,
        1.0
      ],
      "emissiveTexture": {
        "index": 2
      },
      "name": "Character_Mat",
      "pbrMetallicRoughness": {
        "baseColorTexture": {
          "index": 0
        },
        "metallicRoughnessTexture": {
          "index": 1
        }
      }
    },
    {
      "doubleSided": true,
      "name": "Eviro_Mat",
      "normalTexture": {
        "index": 5
      },
      "pbrMetallicRoughness": {
        "baseColorTexture": {
          "index": 3
        },
        "metallicRoughnessTexture": {
          "index": 4
        }
      }
    }
  ],
  "meshes": [
    {
      "name": "Character_Character_Mat_0",
      "primitives": [
        {
          "attributes": {
            "NORMAL": 1,
            "POSITION": 0,
            "TEXCOORD_0": 2,
            "TEXCOORD_1": 3,
            "TEXCOORD_2": 4
          },
          "indices": 5,
          "material": 0,
          "mode": 4
        }
      ]
    },
    {
      "name": "Enviro_Eviro_Mat_0",
      "primitives": [
        {
          "attributes": {
            "NORMAL": 7,
            "POSITION": 6,
            "TANGENT": 8,
            "TEXCOORD_0": 9,
            "TEXCOORD_1": 10
          },
          "indices": 11,
          "material": 1,
          "mode": 4
        }
      ]
    }
  ],
  "nodes": [
    {
      "children": [
        1
      ],
      "matrix": [
        1.0,
        0.0,
        0.0,
        0.0,
        0.0,
        2.220446049250313e-16,
        -1.0,
        0.0,
        0.0,
        1.0,
        2.220446049250313e-16,
        0.0,
        0.0,
        0.0,
        0.0,
        1.0
      ],
      "name": "Sketchfab_model"
    },
    {
      "children": [
        2
      ],
      "matrix": [
        0.009999999776482582,
        0.0,
        0.0,
        0.0,
        0.0,
        0.0,
        0.009999999776482582,
        0.0,
        0.0,
        -0.009999999776482582,
        0.0,
        0.0,
        0.0,
        0.0,
        0.0,
        1.0
      ],
      "name": "23ebf874e16f41378935a8237042e5b9.fbx"
    },
    {
      "children": [
        3,
        5
      ],
      "name": "RootNode"
    },
    {
      "children": [
        4
      ],
      "matrix": [
        100.0,
        0.0,
        0.0,
        0.0,
        0.0,
        -1.629206793918314e-05,
        -99.99999999999868,
        0.0,
        0.0,
        99.99999999999868,
        -1.629206793918314e-05,
        0.0,
        0.0,
        0.0,
        0.0,
        1.0
      ],
      "name": "Character"
    },
    {
      "mesh": 0,
      "name": "Character_Character_Mat_0"
    },
    {
      "children": [
        6
      ],
      "matrix": [
        100.0,
        0.0,
        0.0,
        0.0,
        0.0,
        -1.629206793918314e-05,
        -99.99999999999868,
        0.0,
        0.0,
        99.99999999999868,
        -1.629206793918314e-05,
        0.0,
        0.0,
        0.0,
        0.0,
        1.0
      ],
      "name": "Enviro"
    },
    {
      "mesh": 1,
      "name": "Enviro_Eviro_Mat_0"
    }
  ],
  "samplers": [
    {
      "magFilter": 9729,
      "minFilter": 9987,
      "wrapS": 10497,
      "wrapT": 10497
    }
  ],
  "scene": 0,
  "scenes": [
    {
      "name": "Sketchfab_Scene",
      "nodes": [
        0
      ]
    }
  ],
  "textures": [
    {
      "sampler": 0,
      "source": 0
    },
    {
      "sampler": 0,
      "source": 1
    },
    {
      "sampler": 0,
      "source": 2
    },
    {
      "sampler": 0,
      "source": 3
    },
    {
      "sampler": 0,
      "source": 4
    },
    {
      "sampler": 0,
      "source": 5
    }
  ]
}
